# xmcd
#
# Track frame offsets:
#	150
#	17263
#	28966
#	39919
#	49163
#	59341
#	68902
#	82188
#	90576
#	102804
#	110397
#	119495
#	135395
#	144806
#	151182
#	161287
#	174820
#	183114
#	193713
#	209144
#	218285
#	229466
#	240770
#	251882
#	265359
#	273129
#	282087
#	292622
#
# Disc length: 4054 seconds
#
# Revision: 1
# Processed by: cddbd v1.5.2PL0 Copyright (c) Steve Scherf et al.
# Submitted via: audiograbber 1.83.01
#
DISCID=760fd41c
DTITLE=The Blind Boys of Alabama - Just a closer walk with thee
DYEAR=2006
DGENRE=Blues
TTITLE0=Precious lord
TTITLE1=Just a closer walk with thee
TTITLE2=I can see everybody's mother
TTITLE3=What he's done for me
TTITLE4=After a while
TTITLE5=Old time religion
TTITLE6=Tell god all about it
TTITLE7=I'm journeying on
TTITLE8=Christian in my heart
TTITLE9=God is real
TTITLE10=I just rose to tell you
TTITLE11=How far am i crom canaan
TTITLE12=Looking back
TTITLE13=Rock, sword and shield
TTITLE14=People don't sing
TTITLE15=I trust in god
TTITLE16=Love is like a prayer
TTITLE17=Tell jesus all
TTITLE18=God specializes
TTITLE19=Thank you, jesus
TTITLE20=Mother loves her children
TTITLE21=Come this far by faith
TTITLE22=If you miss me from singing
TTITLE23=Lord have mercy
TTITLE24=Old christian
TTITLE25=He's all right
TTITLE26=What manner of man is this
TTITLE27=Honey in the rock
EXTD=
EXTT0=
EXTT1=
EXTT2=
EXTT3=
EXTT4=
EXTT5=
EXTT6=
EXTT7=
EXTT8=
EXTT9=
EXTT10=
EXTT11=
EXTT12=
EXTT13=
EXTT14=
EXTT15=
EXTT16=
EXTT17=
EXTT18=
EXTT19=
EXTT20=
EXTT21=
EXTT22=
EXTT23=
EXTT24=
EXTT25=
EXTT26=
EXTT27=
PLAYORDER=
